<svg  viewBox="0 0 52 52" fill="none" xmlns="http://www.w3.org/2000/svg">
<rect width="52" height="52" rx="26" fill="white"/>
<path d="M25.9999 20.3273C22.8657 20.3273 20.3272 22.8658 20.3272 26C20.3272 29.1342 22.8657 31.6728 25.9999 31.6728C29.1341 31.6728 31.6726 29.1342 31.6726 26C31.6726 22.8658 29.1341 20.3273 25.9999 20.3273ZM39.573 24.5818C39.0636 24.5818 38.6399 24.198 38.5481 23.697C38.0826 21.1586 36.8562 18.8133 35.0214 16.9785C33.1866 15.1438 30.8413 13.9173 28.3029 13.4519C27.802 13.36 27.4181 12.9363 27.4181 12.427V11.4C27.4181 10.8477 26.9704 10.4 26.4181 10.4H25.5817C25.0294 10.4 24.5817 10.8477 24.5817 11.4V12.427C24.5817 12.9363 24.1979 13.36 23.6969 13.4519C21.1585 13.9173 18.8132 15.1438 16.9784 16.9785C15.1436 18.8133 13.9172 21.1586 13.4517 23.697C13.3599 24.198 12.9362 24.5818 12.4268 24.5818H11.3999C10.8476 24.5818 10.3999 25.0296 10.3999 25.5818V26.4182C10.3999 26.9705 10.8476 27.4182 11.3999 27.4182H12.4268C12.9362 27.4182 13.3599 27.8021 13.4517 28.303C13.9172 30.8415 15.1436 33.1868 16.9784 35.0215C18.8132 36.8563 21.1585 38.0827 23.6969 38.5482C24.1979 38.6401 24.5817 39.0638 24.5817 39.5731V40.6C24.5817 41.1523 25.0294 41.6 25.5817 41.6H26.4181C26.9704 41.6 27.4181 41.1523 27.4181 40.6V39.5731C27.4181 39.0638 27.802 38.6401 28.3029 38.5482C30.8413 38.0827 33.1866 36.8563 35.0214 35.0215C36.8562 33.1868 38.0826 30.8415 38.5481 28.303C38.6399 27.8021 39.0636 27.4182 39.573 27.4182H40.5999C41.1522 27.4182 41.5999 26.9705 41.5999 26.4182V25.5818C41.5999 25.0296 41.1522 24.5818 40.5999 24.5818H39.573ZM25.9999 35.9273C20.5115 35.9273 16.0726 31.4884 16.0726 26C16.0726 20.5117 20.5115 16.0728 25.9999 16.0728C31.4883 16.0728 35.9272 20.5117 35.9272 26C35.9272 31.4884 31.4883 35.9273 25.9999 35.9273Z" fill="#222222"/>
</svg>
